<svg width="142" height="30" viewBox="0 0 142 30" fill="none" xmlns="http://www.w3.org/2000/svg">
<path d="M130.633 1.87231C124.708 1.87231 119.905 6.66363 119.89 12.5814V29.8553H125.164V28.8316C125.164 25.8137 127.615 23.3591 130.633 23.3591C133.331 23.3591 135.797 22.3658 137.685 20.7217C139.945 18.7542 141.376 15.8505 141.376 12.6157C141.376 6.68266 136.566 1.87231 130.633 1.87231ZM130.633 18.0844C127.615 18.0844 125.164 15.6298 125.164 12.6119V12.5776C125.183 9.57877 127.627 7.14695 130.633 7.14695C133.639 7.14695 136.098 9.5978 136.098 12.6119C136.098 15.626 133.647 18.0844 130.633 18.0844Z" fill="white"/>
<path d="M5.27464 15.2379C5.27464 19.7095 8.90904 23.4429 13.3807 23.4429V28.7175C6.00533 28.7175 0 22.6132 0 15.234V0H5.27464V9.25155H9.09552V14.5262H5.27464V15.2302V15.2379Z" fill="white"/>
<path d="M22.9709 7.29163C25.985 7.29163 28.4396 9.74627 28.4396 12.7604C28.4396 15.7744 25.985 18.2291 22.9709 18.2291C19.9568 18.2291 17.5022 15.7744 17.5022 12.7604C17.5022 9.74627 19.9568 7.29163 22.9709 7.29163ZM22.9709 2.01318C17.0379 2.01318 12.2275 6.82353 12.2275 12.7565C12.2275 18.6896 17.0379 23.4999 22.9709 23.4999C28.9039 23.4999 33.7143 18.6896 33.7143 12.7565C33.7143 6.82353 28.9039 2.01318 22.9709 2.01318Z" fill="white"/>
<path d="M47.1254 2.01709C41.2 2.01709 36.3972 6.80841 36.382 12.7262V30.0001H41.6567V28.9764C41.6567 25.9585 44.1075 23.5038 47.1254 23.5038C49.8236 23.5038 52.2897 22.5106 54.1773 20.8665C56.4378 18.899 57.8688 15.9953 57.8688 12.7605C57.8688 6.82743 53.0584 2.01709 47.1254 2.01709ZM47.1254 18.2292C44.1075 18.2292 41.6567 15.7745 41.6567 12.7566V12.7224C41.6757 9.72354 44.1189 7.29172 47.1254 7.29172C50.1319 7.29172 52.5903 9.74256 52.5903 12.7566C52.5903 15.7707 50.1395 18.2292 47.1254 18.2292Z" fill="white"/>
<path d="M70.945 2.01318C65.012 2.01318 60.2017 6.82353 60.2017 12.7565C60.2017 18.6896 65.012 23.4999 70.945 23.4999V18.2253C67.9271 18.2253 65.4763 15.7744 65.4763 12.7565C65.4763 9.73866 67.9271 7.28782 70.945 7.28782C73.0077 7.28782 74.8002 8.42952 75.7325 10.1192H70.945V15.3939H81.3573C81.5742 14.549 81.6884 13.6661 81.6884 12.7565C81.6884 11.847 81.5742 10.9641 81.3573 10.1192C80.1852 5.4611 75.9647 2.01318 70.945 2.01318Z" fill="white"/>
<path d="M89.8592 15.2379C89.8592 19.7095 93.4936 23.4429 97.9652 23.4429V28.7175C90.5899 28.7175 84.5845 22.6132 84.5845 15.234V0H89.8592V9.25155H93.6801V14.5262H89.8592V15.2302V15.2379Z" fill="white"/>
<path d="M107.042 7.29163C110.056 7.29163 112.51 9.74627 112.51 12.7604C112.51 15.7744 110.056 18.2291 107.042 18.2291C104.028 18.2291 101.573 15.7744 101.573 12.7604C101.573 9.74627 104.028 7.29163 107.042 7.29163ZM107.042 2.01318C101.109 2.01318 96.2983 6.82353 96.2983 12.7565C96.2983 18.6896 101.109 23.4999 107.042 23.4999C112.975 23.4999 117.785 18.6896 117.785 12.7565C117.785 6.82353 112.975 2.01318 107.042 2.01318Z" fill="white"/>
</svg>
